<svg xmlns="http://www.w3.org/2000/svg" viewBox="0 0 500 500" role="img" aria-label="Mnemosyne avatar — mood rest, health 85%"><defs><radialGradient id="auraGrad" cx="50%" cy="50%" r="60%"><stop offset="0%" stop-color="#1a8b94" stop-opacity="0.55"/><stop offset="55%" stop-color="#1a8b94" stop-opacity="0.18"/><stop offset="100%" stop-color="#1a8b94" stop-opacity="0"/></radialGradient><radialGradient id="coreGrad" cx="50%" cy="45%" r="60%"><stop offset="0%" stop-color="#0e4a52"/><stop offset="55%" stop-color="#1a8b94"/><stop offset="100%" stop-color="#0a1420"/></radialGradient></defs><rect x="0" y="0" width="500" height="500" fill="#0a1420"/><path d="M0,500 L0,437.9 Q150.0,425.9 250.0,431.9 T500,437.9 L500,500 Z" fill="#0e4a52" fill-opacity="0.10"/><path d="M0,500 L0,476.7 Q150.0,468.7 250.0,472.7 T500,476.7 L500,500 Z" fill="#1a8b94" fill-opacity="0.12"/><path d="M0,500 L0,495.3 Q150.0,489.3 250.0,492.3 T500,495.3 L500,500 Z" fill="#ff9b42" fill-opacity="0.15"/><circle cx="250.0" cy="260.0" r="111.6" fill="url(#auraGrad)" opacity="0.85"><animate attributeName="opacity" values="0.35;0.95;0.35" dur="6.00s" repeatCount="indefinite"/></circle><circle cx="250.0" cy="260.0" r="140.4" fill="none" stroke="#ff9b42" stroke-opacity="0.235" stroke-width="0.8" stroke-dasharray="4 6"/><line x1="274.3" y1="266.5" x2="286.2" y2="269.7" stroke="#0e4a52" stroke-opacity="0.55" stroke-width="1.1" stroke-linecap="round"/><line x1="267.8" y1="277.8" x2="276.5" y2="286.5" stroke="#0e4a52" stroke-opacity="0.55" stroke-width="1.1" stroke-linecap="round"/><line x1="256.5" y1="284.3" x2="259.7" y2="296.2" stroke="#0e4a52" stroke-opacity="0.55" stroke-width="1.1" stroke-linecap="round"/><line x1="243.5" y1="284.3" x2="240.3" y2="296.2" stroke="#0e4a52" stroke-opacity="0.55" stroke-width="1.1" stroke-linecap="round"/><line x1="232.2" y1="277.8" x2="223.5" y2="286.5" stroke="#0e4a52" stroke-opacity="0.55" stroke-width="1.1" stroke-linecap="round"/><line x1="225.7" y1="266.5" x2="213.8" y2="269.7" stroke="#0e4a52" stroke-opacity="0.55" stroke-width="1.1" stroke-linecap="round"/><line x1="225.7" y1="253.5" x2="213.8" y2="250.3" stroke="#0e4a52" stroke-opacity="0.55" stroke-width="1.1" stroke-linecap="round"/><circle cx="250.0" cy="262.0" r="59.6" fill="url(#coreGrad)" fill-opacity="0.45" stroke="#0e4a52" stroke-opacity="0.35" stroke-width="1.2"/><g id="mnemo-owl"><rect x="200.15" y="210.15" width="8.68" height="8.68" fill="#1a8b94" fill-opacity="0.95" shape-rendering="crispEdges"/><rect x="208.43" y="210.15" width="8.68" height="8.68" fill="#1a8b94" fill-opacity="0.95" shape-rendering="crispEdges"/><rect x="282.90" y="210.15" width="8.68" height="8.68" fill="#1a8b94" fill-opacity="0.95" shape-rendering="crispEdges"/><rect x="291.18" y="210.15" width="8.68" height="8.68" fill="#1a8b94" fill-opacity="0.95" shape-rendering="crispEdges"/><rect x="200.15" y="218.43" width="8.68" height="8.68" fill="#0e4a52" fill-opacity="0.89" shape-rendering="crispEdges"/><rect x="208.43" y="218.43" width="8.68" height="8.68" fill="#1a8b94" fill-opacity="0.95" shape-rendering="crispEdges"/><rect x="216.70" y="218.43" width="8.68" height="8.68" fill="#1a8b94" fill-opacity="0.95" shape-rendering="crispEdges"/><rect x="224.98" y="218.43" width="8.68" height="8.68" fill="#1a8b94" fill-opacity="0.95" shape-rendering="crispEdges"/><rect x="233.25" y="218.43" width="8.68" height="8.68" fill="#1a8b94" fill-opacity="0.95" shape-rendering="crispEdges"/><rect x="241.53" y="218.43" width="8.68" height="8.68" fill="#1a8b94" fill-opacity="0.95" shape-rendering="crispEdges"/><rect x="249.80" y="218.43" width="8.68" height="8.68" fill="#1a8b94" fill-opacity="0.95" shape-rendering="crispEdges"/><rect x="258.08" y="218.43" width="8.68" height="8.68" fill="#1a8b94" fill-opacity="0.95" shape-rendering="crispEdges"/><rect x="266.35" y="218.43" width="8.68" height="8.68" fill="#1a8b94" fill-opacity="0.95" shape-rendering="crispEdges"/><rect x="274.63" y="218.43" width="8.68" height="8.68" fill="#1a8b94" fill-opacity="0.95" shape-rendering="crispEdges"/><rect x="282.90" y="218.43" width="8.68" height="8.68" fill="#1a8b94" fill-opacity="0.95" shape-rendering="crispEdges"/><rect x="291.18" y="218.43" width="8.68" height="8.68" fill="#0e4a52" fill-opacity="0.89" shape-rendering="crispEdges"/><rect x="191.88" y="226.70" width="8.68" height="8.68" fill="#0e4a52" fill-opacity="0.89" shape-rendering="crispEdges"/><rect x="200.15" y="226.70" width="8.68" height="8.68" fill="#1a8b94" fill-opacity="0.95" shape-rendering="crispEdges"/><rect x="208.43" y="226.70" width="8.68" height="8.68" fill="#1a8b94" fill-opacity="0.95" shape-rendering="crispEdges"/><rect x="216.70" y="226.70" width="8.68" height="8.68" fill="#1a8b94" fill-opacity="0.95" shape-rendering="crispEdges"/><rect x="224.98" y="226.70" width="8.68" height="8.68" fill="#1a8b94" fill-opacity="0.95" shape-rendering="crispEdges"/><rect x="233.25" y="226.70" width="8.68" height="8.68" fill="#1a8b94" fill-opacity="0.95" shape-rendering="crispEdges"/><rect x="241.53" y="226.70" width="8.68" height="8.68" fill="#1a8b94" fill-opacity="0.95" shape-rendering="crispEdges"/><rect x="249.80" y="226.70" width="8.68" height="8.68" fill="#1a8b94" fill-opacity="0.95" shape-rendering="crispEdges"/><rect x="258.08" y="226.70" width="8.68" height="8.68" fill="#1a8b94" fill-opacity="0.95" shape-rendering="crispEdges"/><rect x="266.35" y="226.70" width="8.68" height="8.68" fill="#1a8b94" fill-opacity="0.95" shape-rendering="crispEdges"/><rect x="274.63" y="226.70" width="8.68" height="8.68" fill="#1a8b94" fill-opacity="0.95" shape-rendering="crispEdges"/><rect x="282.90" y="226.70" width="8.68" height="8.68" fill="#1a8b94" fill-opacity="0.95" shape-rendering="crispEdges"/><rect x="291.18" y="226.70" width="8.68" height="8.68" fill="#1a8b94" fill-opacity="0.95" shape-rendering="crispEdges"/><rect x="299.45" y="226.70" width="8.68" height="8.68" fill="#0e4a52" fill-opacity="0.89" shape-rendering="crispEdges"/><rect x="191.88" y="234.98" width="8.68" height="8.68" fill="#1a8b94" fill-opacity="0.95" shape-rendering="crispEdges"/><rect x="200.15" y="234.98" width="8.68" height="8.68" fill="#1a8b94" fill-opacity="0.95" shape-rendering="crispEdges"/><rect x="233.25" y="234.98" width="8.68" height="8.68" fill="#1a8b94" fill-opacity="0.95" shape-rendering="crispEdges"/><rect x="241.53" y="234.98" width="8.68" height="8.68" fill="#1a8b94" fill-opacity="0.95" shape-rendering="crispEdges"/><rect x="249.80" y="234.98" width="8.68" height="8.68" fill="#1a8b94" fill-opacity="0.95" shape-rendering="crispEdges"/><rect x="258.08" y="234.98" width="8.68" height="8.68" fill="#1a8b94" fill-opacity="0.95" shape-rendering="crispEdges"/><rect x="291.18" y="234.98" width="8.68" height="8.68" fill="#1a8b94" fill-opacity="0.95" shape-rendering="crispEdges"/><rect x="299.45" y="234.98" width="8.68" height="8.68" fill="#1a8b94" fill-opacity="0.95" shape-rendering="crispEdges"/><rect x="191.88" y="243.25" width="8.68" height="8.68" fill="#1a8b94" fill-opacity="0.95" shape-rendering="crispEdges"/><rect x="233.25" y="243.25" width="8.68" height="8.68" fill="#1a8b94" fill-opacity="0.95" shape-rendering="crispEdges"/><rect x="241.53" y="243.25" width="8.68" height="8.68" fill="#1a8b94" fill-opacity="0.95" shape-rendering="crispEdges"/><rect x="249.80" y="243.25" width="8.68" height="8.68" fill="#1a8b94" fill-opacity="0.95" shape-rendering="crispEdges"/><rect x="258.08" y="243.25" width="8.68" height="8.68" fill="#1a8b94" fill-opacity="0.95" shape-rendering="crispEdges"/><rect x="299.45" y="243.25" width="8.68" height="8.68" fill="#1a8b94" fill-opacity="0.95" shape-rendering="crispEdges"/><rect x="191.88" y="251.53" width="8.68" height="8.68" fill="#1a8b94" fill-opacity="0.95" shape-rendering="crispEdges"/><rect x="233.25" y="251.53" width="8.68" height="8.68" fill="#1a8b94" fill-opacity="0.95" shape-rendering="crispEdges"/><rect x="241.53" y="251.53" width="8.68" height="8.68" fill="#1a8b94" fill-opacity="0.95" shape-rendering="crispEdges"/><rect x="249.80" y="251.53" width="8.68" height="8.68" fill="#1a8b94" fill-opacity="0.95" shape-rendering="crispEdges"/><rect x="258.08" y="251.53" width="8.68" height="8.68" fill="#1a8b94" fill-opacity="0.95" shape-rendering="crispEdges"/><rect x="299.45" y="251.53" width="8.68" height="8.68" fill="#1a8b94" fill-opacity="0.95" shape-rendering="crispEdges"/><rect x="191.88" y="259.80" width="8.68" height="8.68" fill="#1a8b94" fill-opacity="0.95" shape-rendering="crispEdges"/><rect x="200.15" y="259.80" width="8.68" height="8.68" fill="#1a8b94" fill-opacity="0.95" shape-rendering="crispEdges"/><rect x="233.25" y="259.80" width="8.68" height="8.68" fill="#1a8b94" fill-opacity="0.95" shape-rendering="crispEdges"/><rect x="241.53" y="259.80" width="8.68" height="8.68" fill="#1a8b94" fill-opacity="0.95" shape-rendering="crispEdges"/><rect x="249.80" y="259.80" width="8.68" height="8.68" fill="#1a8b94" fill-opacity="0.95" shape-rendering="crispEdges"/><rect x="258.08" y="259.80" width="8.68" height="8.68" fill="#1a8b94" fill-opacity="0.95" shape-rendering="crispEdges"/><rect x="291.18" y="259.80" width="8.68" height="8.68" fill="#1a8b94" fill-opacity="0.95" shape-rendering="crispEdges"/><rect x="299.45" y="259.80" width="8.68" height="8.68" fill="#1a8b94" fill-opacity="0.95" shape-rendering="crispEdges"/><rect x="200.15" y="268.08" width="8.68" height="8.68" fill="#1a8b94" fill-opacity="0.95" shape-rendering="crispEdges"/><rect x="208.43" y="268.08" width="8.68" height="8.68" fill="#1a8b94" fill-opacity="0.95" shape-rendering="crispEdges"/><rect x="216.70" y="268.08" width="8.68" height="8.68" fill="#1a8b94" fill-opacity="0.95" shape-rendering="crispEdges"/><rect x="224.98" y="268.08" width="8.68" height="8.68" fill="#1a8b94" fill-opacity="0.95" shape-rendering="crispEdges"/><rect x="233.25" y="268.08" width="8.68" height="8.68" fill="#1a8b94" fill-opacity="0.95" shape-rendering="crispEdges"/><rect x="241.53" y="268.08" width="8.68" height="8.68" fill="#0e4a52" fill-opacity="0.95" shape-rendering="crispEdges"/><rect x="249.80" y="268.08" width="8.68" height="8.68" fill="#0e4a52" fill-opacity="0.95" shape-rendering="crispEdges"/><rect x="258.08" y="268.08" width="8.68" height="8.68" fill="#1a8b94" fill-opacity="0.95" shape-rendering="crispEdges"/><rect x="266.35" y="268.08" width="8.68" height="8.68" fill="#1a8b94" fill-opacity="0.95" shape-rendering="crispEdges"/><rect x="274.63" y="268.08" width="8.68" height="8.68" fill="#1a8b94" fill-opacity="0.95" shape-rendering="crispEdges"/><rect x="282.90" y="268.08" width="8.68" height="8.68" fill="#1a8b94" fill-opacity="0.95" shape-rendering="crispEdges"/><rect x="291.18" y="268.08" width="8.68" height="8.68" fill="#1a8b94" fill-opacity="0.95" shape-rendering="crispEdges"/><rect x="200.15" y="276.35" width="8.68" height="8.68" fill="#1a8b94" fill-opacity="0.95" shape-rendering="crispEdges"/><rect x="208.43" y="276.35" width="8.68" height="8.68" fill="#1a8b94" fill-opacity="0.95" shape-rendering="crispEdges"/><rect x="216.70" y="276.35" width="8.68" height="8.68" fill="#1a8b94" fill-opacity="0.95" shape-rendering="crispEdges"/><rect x="224.98" y="276.35" width="8.68" height="8.68" fill="#1a8b94" fill-opacity="0.95" shape-rendering="crispEdges"/><rect x="233.25" y="276.35" width="8.68" height="8.68" fill="#0e4a52" fill-opacity="0.95" shape-rendering="crispEdges"/><rect x="241.53" y="276.35" width="8.68" height="8.68" fill="#0e4a52" fill-opacity="0.95" shape-rendering="crispEdges"/><rect x="249.80" y="276.35" width="8.68" height="8.68" fill="#0e4a52" fill-opacity="0.95" shape-rendering="crispEdges"/><rect x="258.08" y="276.35" width="8.68" height="8.68" fill="#0e4a52" fill-opacity="0.95" shape-rendering="crispEdges"/><rect x="266.35" y="276.35" width="8.68" height="8.68" fill="#1a8b94" fill-opacity="0.95" shape-rendering="crispEdges"/><rect x="274.63" y="276.35" width="8.68" height="8.68" fill="#1a8b94" fill-opacity="0.95" shape-rendering="crispEdges"/><rect x="282.90" y="276.35" width="8.68" height="8.68" fill="#1a8b94" fill-opacity="0.95" shape-rendering="crispEdges"/><rect x="291.18" y="276.35" width="8.68" height="8.68" fill="#1a8b94" fill-opacity="0.95" shape-rendering="crispEdges"/><rect x="191.88" y="284.63" width="8.68" height="8.68" fill="#1a8b94" fill-opacity="0.95" shape-rendering="crispEdges"/><rect x="200.15" y="284.63" width="8.68" height="8.68" fill="#1a8b94" fill-opacity="0.95" shape-rendering="crispEdges"/><rect x="208.43" y="284.63" width="8.68" height="8.68" fill="#114954" fill-opacity="0.95" shape-rendering="crispEdges"/><rect x="216.70" y="284.63" width="8.68" height="8.68" fill="#114954" fill-opacity="0.95" shape-rendering="crispEdges"/><rect x="224.98" y="284.63" width="8.68" height="8.68" fill="#114954" fill-opacity="0.95" shape-rendering="crispEdges"/><rect x="233.25" y="284.63" width="8.68" height="8.68" fill="#ff9b42" fill-opacity="0.55" shape-rendering="crispEdges"/><rect x="241.53" y="284.63" width="8.68" height="8.68" fill="#ff9b42" fill-opacity="0.55" shape-rendering="crispEdges"/><rect x="249.80" y="284.63" width="8.68" height="8.68" fill="#ff9b42" fill-opacity="0.55" shape-rendering="crispEdges"/><rect x="258.08" y="284.63" width="8.68" height="8.68" fill="#ff9b42" fill-opacity="0.55" shape-rendering="crispEdges"/><rect x="266.35" y="284.63" width="8.68" height="8.68" fill="#114954" fill-opacity="0.95" shape-rendering="crispEdges"/><rect x="274.63" y="284.63" width="8.68" height="8.68" fill="#114954" fill-opacity="0.95" shape-rendering="crispEdges"/><rect x="282.90" y="284.63" width="8.68" height="8.68" fill="#114954" fill-opacity="0.95" shape-rendering="crispEdges"/><rect x="291.18" y="284.63" width="8.68" height="8.68" fill="#1a8b94" fill-opacity="0.95" shape-rendering="crispEdges"/><rect x="299.45" y="284.63" width="8.68" height="8.68" fill="#1a8b94" fill-opacity="0.95" shape-rendering="crispEdges"/><rect x="191.88" y="292.90" width="8.68" height="8.68" fill="#1a8b94" fill-opacity="0.95" shape-rendering="crispEdges"/><rect x="200.15" y="292.90" width="8.68" height="8.68" fill="#1a8b94" fill-opacity="0.95" shape-rendering="crispEdges"/><rect x="208.43" y="292.90" width="8.68" height="8.68" fill="#114954" fill-opacity="0.95" shape-rendering="crispEdges"/><rect x="216.70" y="292.90" width="8.68" height="8.68" fill="#114954" fill-opacity="0.95" shape-rendering="crispEdges"/><rect x="224.98" y="292.90" width="8.68" height="8.68" fill="#114954" fill-opacity="0.95" shape-rendering="crispEdges"/><rect x="233.25" y="292.90" width="8.68" height="8.68" fill="#114954" fill-opacity="0.95" shape-rendering="crispEdges"/><rect x="241.53" y="292.90" width="8.68" height="8.68" fill="#ff9b42" fill-opacity="0.55" shape-rendering="crispEdges"/><rect x="249.80" y="292.90" width="8.68" height="8.68" fill="#ff9b42" fill-opacity="0.55" shape-rendering="crispEdges"/><rect x="258.08" y="292.90" width="8.68" height="8.68" fill="#114954" fill-opacity="0.95" shape-rendering="crispEdges"/><rect x="266.35" y="292.90" width="8.68" height="8.68" fill="#114954" fill-opacity="0.95" shape-rendering="crispEdges"/><rect x="274.63" y="292.90" width="8.68" height="8.68" fill="#114954" fill-opacity="0.95" shape-rendering="crispEdges"/><rect x="282.90" y="292.90" width="8.68" height="8.68" fill="#114954" fill-opacity="0.95" shape-rendering="crispEdges"/><rect x="291.18" y="292.90" width="8.68" height="8.68" fill="#1a8b94" fill-opacity="0.95" shape-rendering="crispEdges"/><rect x="299.45" y="292.90" width="8.68" height="8.68" fill="#1a8b94" fill-opacity="0.95" shape-rendering="crispEdges"/><rect x="191.88" y="301.18" width="8.68" height="8.68" fill="#1a8b94" fill-opacity="0.95" shape-rendering="crispEdges"/><rect x="200.15" y="301.18" width="8.68" height="8.68" fill="#1a8b94" fill-opacity="0.95" shape-rendering="crispEdges"/><rect x="208.43" y="301.18" width="8.68" height="8.68" fill="#114954" fill-opacity="0.95" shape-rendering="crispEdges"/><rect x="216.70" y="301.18" width="8.68" height="8.68" fill="#114954" fill-opacity="0.95" shape-rendering="crispEdges"/><rect x="224.98" y="301.18" width="8.68" height="8.68" fill="#114954" fill-opacity="0.95" shape-rendering="crispEdges"/><rect x="233.25" y="301.18" width="8.68" height="8.68" fill="#114954" fill-opacity="0.95" shape-rendering="crispEdges"/><rect x="241.53" y="301.18" width="8.68" height="8.68" fill="#114954" fill-opacity="0.95" shape-rendering="crispEdges"/><rect x="249.80" y="301.18" width="8.68" height="8.68" fill="#114954" fill-opacity="0.95" shape-rendering="crispEdges"/><rect x="258.08" y="301.18" width="8.68" height="8.68" fill="#114954" fill-opacity="0.95" shape-rendering="crispEdges"/><rect x="266.35" y="301.18" width="8.68" height="8.68" fill="#114954" fill-opacity="0.95" shape-rendering="crispEdges"/><rect x="274.63" y="301.18" width="8.68" height="8.68" fill="#114954" fill-opacity="0.95" shape-rendering="crispEdges"/><rect x="282.90" y="301.18" width="8.68" height="8.68" fill="#114954" fill-opacity="0.95" shape-rendering="crispEdges"/><rect x="291.18" y="301.18" width="8.68" height="8.68" fill="#1a8b94" fill-opacity="0.95" shape-rendering="crispEdges"/><rect x="299.45" y="301.18" width="8.68" height="8.68" fill="#1a8b94" fill-opacity="0.95" shape-rendering="crispEdges"/><rect x="200.15" y="309.45" width="8.68" height="8.68" fill="#1a8b94" fill-opacity="0.95" shape-rendering="crispEdges"/><rect x="208.43" y="309.45" width="8.68" height="8.68" fill="#1a8b94" fill-opacity="0.95" shape-rendering="crispEdges"/><rect x="216.70" y="309.45" width="8.68" height="8.68" fill="#114954" fill-opacity="0.95" shape-rendering="crispEdges"/><rect x="224.98" y="309.45" width="8.68" height="8.68" fill="#114954" fill-opacity="0.95" shape-rendering="crispEdges"/><rect x="233.25" y="309.45" width="8.68" height="8.68" fill="#114954" fill-opacity="0.95" shape-rendering="crispEdges"/><rect x="241.53" y="309.45" width="8.68" height="8.68" fill="#114954" fill-opacity="0.95" shape-rendering="crispEdges"/><rect x="249.80" y="309.45" width="8.68" height="8.68" fill="#114954" fill-opacity="0.95" shape-rendering="crispEdges"/><rect x="258.08" y="309.45" width="8.68" height="8.68" fill="#114954" fill-opacity="0.95" shape-rendering="crispEdges"/><rect x="266.35" y="309.45" width="8.68" height="8.68" fill="#114954" fill-opacity="0.95" shape-rendering="crispEdges"/><rect x="274.63" y="309.45" width="8.68" height="8.68" fill="#114954" fill-opacity="0.95" shape-rendering="crispEdges"/><rect x="282.90" y="309.45" width="8.68" height="8.68" fill="#1a8b94" fill-opacity="0.95" shape-rendering="crispEdges"/><rect x="291.18" y="309.45" width="8.68" height="8.68" fill="#1a8b94" fill-opacity="0.95" shape-rendering="crispEdges"/><rect x="208.43" y="317.73" width="8.68" height="8.68" fill="#0e4a52" fill-opacity="0.89" shape-rendering="crispEdges"/><rect x="216.70" y="317.73" width="8.68" height="8.68" fill="#0e4a52" fill-opacity="0.89" shape-rendering="crispEdges"/><rect x="224.98" y="317.73" width="8.68" height="8.68" fill="#1a8b94" fill-opacity="0.95" shape-rendering="crispEdges"/><rect x="233.25" y="317.73" width="8.68" height="8.68" fill="#1a8b94" fill-opacity="0.95" shape-rendering="crispEdges"/><rect x="241.53" y="317.73" width="8.68" height="8.68" fill="#1a8b94" fill-opacity="0.95" shape-rendering="crispEdges"/><rect x="249.80" y="317.73" width="8.68" height="8.68" fill="#1a8b94" fill-opacity="0.95" shape-rendering="crispEdges"/><rect x="258.08" y="317.73" width="8.68" height="8.68" fill="#1a8b94" fill-opacity="0.95" shape-rendering="crispEdges"/><rect x="266.35" y="317.73" width="8.68" height="8.68" fill="#1a8b94" fill-opacity="0.95" shape-rendering="crispEdges"/><rect x="274.63" y="317.73" width="8.68" height="8.68" fill="#0e4a52" fill-opacity="0.89" shape-rendering="crispEdges"/><rect x="282.90" y="317.73" width="8.68" height="8.68" fill="#0e4a52" fill-opacity="0.89" shape-rendering="crispEdges"/><rect x="208.43" y="234.98" width="8.68" height="8.68" fill="#1a8b94" fill-opacity="0.95" shape-rendering="crispEdges"/><rect x="216.70" y="234.98" width="8.68" height="8.68" fill="#1a8b94" fill-opacity="0.95" shape-rendering="crispEdges"/><rect x="224.98" y="234.98" width="8.68" height="8.68" fill="#1a8b94" fill-opacity="0.95" shape-rendering="crispEdges"/><rect x="266.35" y="234.98" width="8.68" height="8.68" fill="#1a8b94" fill-opacity="0.95" shape-rendering="crispEdges"/><rect x="274.63" y="234.98" width="8.68" height="8.68" fill="#1a8b94" fill-opacity="0.95" shape-rendering="crispEdges"/><rect x="282.90" y="234.98" width="8.68" height="8.68" fill="#1a8b94" fill-opacity="0.95" shape-rendering="crispEdges"/><rect x="200.15" y="243.25" width="8.68" height="8.68" fill="#1a8b94" fill-opacity="0.95" shape-rendering="crispEdges"/><rect x="208.43" y="243.25" width="8.68" height="8.68" fill="#0e4a52" fill-opacity="0.89" shape-rendering="crispEdges"/><rect x="216.70" y="243.25" width="8.68" height="8.68" fill="#0e4a52" fill-opacity="0.89" shape-rendering="crispEdges"/><rect x="224.98" y="243.25" width="8.68" height="8.68" fill="#1a8b94" fill-opacity="0.95" shape-rendering="crispEdges"/><rect x="266.35" y="243.25" width="8.68" height="8.68" fill="#1a8b94" fill-opacity="0.95" shape-rendering="crispEdges"/><rect x="274.63" y="243.25" width="8.68" height="8.68" fill="#0e4a52" fill-opacity="0.89" shape-rendering="crispEdges"/><rect x="282.90" y="243.25" width="8.68" height="8.68" fill="#0e4a52" fill-opacity="0.89" shape-rendering="crispEdges"/><rect x="291.18" y="243.25" width="8.68" height="8.68" fill="#1a8b94" fill-opacity="0.95" shape-rendering="crispEdges"/><rect x="200.15" y="251.53" width="8.68" height="8.68" fill="#1a8b94" fill-opacity="0.95" shape-rendering="crispEdges"/><rect x="208.43" y="251.53" width="8.68" height="8.68" fill="#0e4a52" fill-opacity="0.89" shape-rendering="crispEdges"/><rect x="216.70" y="251.53" width="8.68" height="8.68" fill="#0e4a52" fill-opacity="0.89" shape-rendering="crispEdges"/><rect x="224.98" y="251.53" width="8.68" height="8.68" fill="#1a8b94" fill-opacity="0.95" shape-rendering="crispEdges"/><rect x="266.35" y="251.53" width="8.68" height="8.68" fill="#1a8b94" fill-opacity="0.95" shape-rendering="crispEdges"/><rect x="274.63" y="251.53" width="8.68" height="8.68" fill="#0e4a52" fill-opacity="0.89" shape-rendering="crispEdges"/><rect x="282.90" y="251.53" width="8.68" height="8.68" fill="#0e4a52" fill-opacity="0.89" shape-rendering="crispEdges"/><rect x="291.18" y="251.53" width="8.68" height="8.68" fill="#1a8b94" fill-opacity="0.95" shape-rendering="crispEdges"/><rect x="208.43" y="259.80" width="8.68" height="8.68" fill="#1a8b94" fill-opacity="0.95" shape-rendering="crispEdges"/><rect x="216.70" y="259.80" width="8.68" height="8.68" fill="#1a8b94" fill-opacity="0.95" shape-rendering="crispEdges"/><rect x="224.98" y="259.80" width="8.68" height="8.68" fill="#1a8b94" fill-opacity="0.95" shape-rendering="crispEdges"/><rect x="266.35" y="259.80" width="8.68" height="8.68" fill="#1a8b94" fill-opacity="0.95" shape-rendering="crispEdges"/><rect x="274.63" y="259.80" width="8.68" height="8.68" fill="#1a8b94" fill-opacity="0.95" shape-rendering="crispEdges"/><rect x="282.90" y="259.80" width="8.68" height="8.68" fill="#1a8b94" fill-opacity="0.95" shape-rendering="crispEdges"/><g><rect x="200.15" y="193.60" width="8.68" height="8.68" fill="#0e4a52" fill-opacity="0.80" shape-rendering="crispEdges"/><rect x="191.88" y="201.88" width="8.68" height="8.68" fill="#0e4a52" fill-opacity="0.80" shape-rendering="crispEdges"/><rect x="200.15" y="201.88" width="8.68" height="8.68" fill="#0e4a52" fill-opacity="0.80" shape-rendering="crispEdges"/><rect x="191.88" y="210.15" width="8.68" height="8.68" fill="#0e4a52" fill-opacity="0.80" shape-rendering="crispEdges"/><animateTransform attributeName="transform" type="rotate" values="0 200.35 218.62;0.4 200.35 218.62;0 200.35 218.62" dur="2.80s" repeatCount="indefinite"/></g><g><rect x="291.18" y="193.60" width="8.68" height="8.68" fill="#0e4a52" fill-opacity="0.80" shape-rendering="crispEdges"/><rect x="291.18" y="201.88" width="8.68" height="8.68" fill="#0e4a52" fill-opacity="0.80" shape-rendering="crispEdges"/><rect x="299.45" y="201.88" width="8.68" height="8.68" fill="#0e4a52" fill-opacity="0.80" shape-rendering="crispEdges"/><rect x="299.45" y="210.15" width="8.68" height="8.68" fill="#0e4a52" fill-opacity="0.80" shape-rendering="crispEdges"/><animateTransform attributeName="transform" type="rotate" values="0 299.65 218.62;-0.4 299.65 218.62;0 299.65 218.62" dur="2.80s" repeatCount="indefinite"/></g><animateTransform xlink:href="#mnemo-owl" attributeName="transform" type="translate" additive="sum" values="0 0; 0.52 0; 0 0; -0.52 0; 0 0" dur="3.5s" repeatCount="indefinite"/><animateTransform attributeName="transform" type="translate" additive="sum" values="0 0; 0 -0.99; 0 0" dur="6.00s" repeatCount="indefinite"/></g><g><circle cx="350.0" cy="260.0" r="3" fill="#ff9b42" opacity="0.78"/><circle cx="150.0" cy="260.0" r="3" fill="#ff9b42" opacity="0.78"/><animateTransform attributeName="transform" type="rotate" from="0 250.0 260.0" to="360 250.0 260.0" dur="19.3s" repeatCount="indefinite"/></g><line x1="230.0" y1="322.2" x2="230.0" y2="360.3" stroke="#ff9b42" stroke-opacity="0.55" stroke-width="2" stroke-linecap="round"/><line x1="250.0" y1="322.2" x2="250.0" y2="378.3" stroke="#1a8b94" stroke-opacity="0.55" stroke-width="2" stroke-linecap="round"/><line x1="270.0" y1="322.2" x2="270.0" y2="390.6" stroke="#0e4a52" stroke-opacity="0.55" stroke-width="2" stroke-linecap="round"/></svg>