<svg xmlns="http://www.w3.org/2000/svg" viewBox="0 0 500 500" role="img" aria-label="Mnemosyne avatar — mood focus, health 95%"><defs><radialGradient id="auraGrad" cx="50%" cy="50%" r="60%"><stop offset="0%" stop-color="#20b9c4" stop-opacity="0.55"/><stop offset="55%" stop-color="#20b9c4" stop-opacity="0.18"/><stop offset="100%" stop-color="#20b9c4" stop-opacity="0"/></radialGradient><radialGradient id="coreGrad" cx="50%" cy="45%" r="60%"><stop offset="0%" stop-color="#0e4a52"/><stop offset="55%" stop-color="#20b9c4"/><stop offset="100%" stop-color="#0a1420"/></radialGradient></defs><rect x="0" y="0" width="500" height="500" fill="#0a1420"/><path d="M0,500 L0,437.1 Q150.0,425.1 250.0,431.1 T500,437.1 L500,500 Z" fill="#0e4a52" fill-opacity="0.10"/><path d="M0,500 L0,477.1 Q150.0,469.1 250.0,473.1 T500,477.1 L500,500 Z" fill="#20b9c4" fill-opacity="0.12"/><path d="M0,500 L0,495.7 Q150.0,489.7 250.0,492.7 T500,495.7 L500,500 Z" fill="#ff7a1f" fill-opacity="0.15"/><circle cx="250.0" cy="260.0" r="139.5" fill="url(#auraGrad)" opacity="0.85"><animate attributeName="opacity" values="0.35;0.95;0.35" dur="5.00s" repeatCount="indefinite"/></circle><circle cx="250.0" cy="260.0" r="175.5" fill="none" stroke="#ff7a1f" stroke-opacity="0.340" stroke-width="0.8" stroke-dasharray="4 6"/><line x1="280.4" y1="268.2" x2="295.2" y2="272.1" stroke="#0e4a52" stroke-opacity="0.55" stroke-width="1.1" stroke-linecap="round"/><line x1="272.3" y1="282.3" x2="283.1" y2="293.1" stroke="#0e4a52" stroke-opacity="0.55" stroke-width="1.1" stroke-linecap="round"/><line x1="258.2" y1="290.4" x2="262.1" y2="305.2" stroke="#0e4a52" stroke-opacity="0.55" stroke-width="1.1" stroke-linecap="round"/><line x1="241.8" y1="290.4" x2="237.9" y2="305.2" stroke="#0e4a52" stroke-opacity="0.55" stroke-width="1.1" stroke-linecap="round"/><line x1="227.7" y1="282.3" x2="216.9" y2="293.1" stroke="#0e4a52" stroke-opacity="0.55" stroke-width="1.1" stroke-linecap="round"/><line x1="219.6" y1="268.2" x2="204.8" y2="272.1" stroke="#0e4a52" stroke-opacity="0.55" stroke-width="1.1" stroke-linecap="round"/><line x1="219.6" y1="251.8" x2="204.8" y2="247.9" stroke="#0e4a52" stroke-opacity="0.55" stroke-width="1.1" stroke-linecap="round"/><line x1="227.7" y1="237.7" x2="216.9" y2="226.9" stroke="#0e4a52" stroke-opacity="0.55" stroke-width="1.1" stroke-linecap="round"/><line x1="241.8" y1="229.6" x2="237.9" y2="214.8" stroke="#0e4a52" stroke-opacity="0.55" stroke-width="1.1" stroke-linecap="round"/><line x1="258.2" y1="229.6" x2="262.1" y2="214.8" stroke="#0e4a52" stroke-opacity="0.55" stroke-width="1.1" stroke-linecap="round"/><circle cx="250.0" cy="260.0" r="58.5" fill="none" stroke="#ff7a1f" stroke-opacity="0.36" stroke-width="1.2"/><circle cx="250.0" cy="260.0" r="69.3" fill="none" stroke="#ff7a1f" stroke-opacity="0.30" stroke-width="1.2"/><circle cx="250.0" cy="260.0" r="80.1" fill="none" stroke="#ff7a1f" stroke-opacity="0.24" stroke-width="1.2"/><circle cx="250.0" cy="262.0" r="60.7" fill="url(#coreGrad)" fill-opacity="0.45" stroke="#0e4a52" stroke-opacity="0.35" stroke-width="1.2"/><g id="mnemo-owl"><rect x="199.25" y="209.25" width="8.83" height="8.83" fill="#20b9c4" fill-opacity="0.98" shape-rendering="crispEdges"/><rect x="207.68" y="209.25" width="8.83" height="8.83" fill="#20b9c4" fill-opacity="0.98" shape-rendering="crispEdges"/><rect x="283.50" y="209.25" width="8.83" height="8.83" fill="#20b9c4" fill-opacity="0.98" shape-rendering="crispEdges"/><rect x="291.93" y="209.25" width="8.83" height="8.83" fill="#20b9c4" fill-opacity="0.98" shape-rendering="crispEdges"/><rect x="199.25" y="217.68" width="8.83" height="8.83" fill="#0e4a52" fill-opacity="0.93" shape-rendering="crispEdges"/><rect x="207.68" y="217.68" width="8.83" height="8.83" fill="#20b9c4" fill-opacity="0.98" shape-rendering="crispEdges"/><rect x="216.10" y="217.68" width="8.83" height="8.83" fill="#20b9c4" fill-opacity="0.98" shape-rendering="crispEdges"/><rect x="224.53" y="217.68" width="8.83" height="8.83" fill="#20b9c4" fill-opacity="0.98" shape-rendering="crispEdges"/><rect x="232.95" y="217.68" width="8.83" height="8.83" fill="#20b9c4" fill-opacity="0.98" shape-rendering="crispEdges"/><rect x="241.38" y="217.68" width="8.83" height="8.83" fill="#20b9c4" fill-opacity="0.98" shape-rendering="crispEdges"/><rect x="249.80" y="217.68" width="8.83" height="8.83" fill="#20b9c4" fill-opacity="0.98" shape-rendering="crispEdges"/><rect x="258.23" y="217.68" width="8.83" height="8.83" fill="#20b9c4" fill-opacity="0.98" shape-rendering="crispEdges"/><rect x="266.65" y="217.68" width="8.83" height="8.83" fill="#20b9c4" fill-opacity="0.98" shape-rendering="crispEdges"/><rect x="275.07" y="217.68" width="8.83" height="8.83" fill="#20b9c4" fill-opacity="0.98" shape-rendering="crispEdges"/><rect x="283.50" y="217.68" width="8.83" height="8.83" fill="#20b9c4" fill-opacity="0.98" shape-rendering="crispEdges"/><rect x="291.93" y="217.68" width="8.83" height="8.83" fill="#0e4a52" fill-opacity="0.93" shape-rendering="crispEdges"/><rect x="190.83" y="226.10" width="8.83" height="8.83" fill="#0e4a52" fill-opacity="0.93" shape-rendering="crispEdges"/><rect x="199.25" y="226.10" width="8.83" height="8.83" fill="#20b9c4" fill-opacity="0.98" shape-rendering="crispEdges"/><rect x="207.68" y="226.10" width="8.83" height="8.83" fill="#20b9c4" fill-opacity="0.98" shape-rendering="crispEdges"/><rect x="216.10" y="226.10" width="8.83" height="8.83" fill="#20b9c4" fill-opacity="0.98" shape-rendering="crispEdges"/><rect x="224.53" y="226.10" width="8.83" height="8.83" fill="#20b9c4" fill-opacity="0.98" shape-rendering="crispEdges"/><rect x="232.95" y="226.10" width="8.83" height="8.83" fill="#20b9c4" fill-opacity="0.98" shape-rendering="crispEdges"/><rect x="241.38" y="226.10" width="8.83" height="8.83" fill="#20b9c4" fill-opacity="0.98" shape-rendering="crispEdges"/><rect x="249.80" y="226.10" width="8.83" height="8.83" fill="#20b9c4" fill-opacity="0.98" shape-rendering="crispEdges"/><rect x="258.23" y="226.10" width="8.83" height="8.83" fill="#20b9c4" fill-opacity="0.98" shape-rendering="crispEdges"/><rect x="266.65" y="226.10" width="8.83" height="8.83" fill="#20b9c4" fill-opacity="0.98" shape-rendering="crispEdges"/><rect x="275.07" y="226.10" width="8.83" height="8.83" fill="#20b9c4" fill-opacity="0.98" shape-rendering="crispEdges"/><rect x="283.50" y="226.10" width="8.83" height="8.83" fill="#20b9c4" fill-opacity="0.98" shape-rendering="crispEdges"/><rect x="291.93" y="226.10" width="8.83" height="8.83" fill="#20b9c4" fill-opacity="0.98" shape-rendering="crispEdges"/><rect x="300.35" y="226.10" width="8.83" height="8.83" fill="#0e4a52" fill-opacity="0.93" shape-rendering="crispEdges"/><rect x="190.83" y="234.53" width="8.83" height="8.83" fill="#20b9c4" fill-opacity="0.98" shape-rendering="crispEdges"/><rect x="199.25" y="234.53" width="8.83" height="8.83" fill="#20b9c4" fill-opacity="0.98" shape-rendering="crispEdges"/><rect x="232.95" y="234.53" width="8.83" height="8.83" fill="#20b9c4" fill-opacity="0.98" shape-rendering="crispEdges"/><rect x="241.38" y="234.53" width="8.83" height="8.83" fill="#20b9c4" fill-opacity="0.98" shape-rendering="crispEdges"/><rect x="249.80" y="234.53" width="8.83" height="8.83" fill="#20b9c4" fill-opacity="0.98" shape-rendering="crispEdges"/><rect x="258.23" y="234.53" width="8.83" height="8.83" fill="#20b9c4" fill-opacity="0.98" shape-rendering="crispEdges"/><rect x="291.93" y="234.53" width="8.83" height="8.83" fill="#20b9c4" fill-opacity="0.98" shape-rendering="crispEdges"/><rect x="300.35" y="234.53" width="8.83" height="8.83" fill="#20b9c4" fill-opacity="0.98" shape-rendering="crispEdges"/><rect x="190.83" y="242.95" width="8.83" height="8.83" fill="#20b9c4" fill-opacity="0.98" shape-rendering="crispEdges"/><rect x="232.95" y="242.95" width="8.83" height="8.83" fill="#20b9c4" fill-opacity="0.98" shape-rendering="crispEdges"/><rect x="241.38" y="242.95" width="8.83" height="8.83" fill="#20b9c4" fill-opacity="0.98" shape-rendering="crispEdges"/><rect x="249.80" y="242.95" width="8.83" height="8.83" fill="#20b9c4" fill-opacity="0.98" shape-rendering="crispEdges"/><rect x="258.23" y="242.95" width="8.83" height="8.83" fill="#20b9c4" fill-opacity="0.98" shape-rendering="crispEdges"/><rect x="300.35" y="242.95" width="8.83" height="8.83" fill="#20b9c4" fill-opacity="0.98" shape-rendering="crispEdges"/><rect x="190.83" y="251.38" width="8.83" height="8.83" fill="#20b9c4" fill-opacity="0.98" shape-rendering="crispEdges"/><rect x="232.95" y="251.38" width="8.83" height="8.83" fill="#20b9c4" fill-opacity="0.98" shape-rendering="crispEdges"/><rect x="241.38" y="251.38" width="8.83" height="8.83" fill="#20b9c4" fill-opacity="0.98" shape-rendering="crispEdges"/><rect x="249.80" y="251.38" width="8.83" height="8.83" fill="#20b9c4" fill-opacity="0.98" shape-rendering="crispEdges"/><rect x="258.23" y="251.38" width="8.83" height="8.83" fill="#20b9c4" fill-opacity="0.98" shape-rendering="crispEdges"/><rect x="300.35" y="251.38" width="8.83" height="8.83" fill="#20b9c4" fill-opacity="0.98" shape-rendering="crispEdges"/><rect x="190.83" y="259.80" width="8.83" height="8.83" fill="#20b9c4" fill-opacity="0.98" shape-rendering="crispEdges"/><rect x="199.25" y="259.80" width="8.83" height="8.83" fill="#20b9c4" fill-opacity="0.98" shape-rendering="crispEdges"/><rect x="232.95" y="259.80" width="8.83" height="8.83" fill="#20b9c4" fill-opacity="0.98" shape-rendering="crispEdges"/><rect x="241.38" y="259.80" width="8.83" height="8.83" fill="#20b9c4" fill-opacity="0.98" shape-rendering="crispEdges"/><rect x="249.80" y="259.80" width="8.83" height="8.83" fill="#20b9c4" fill-opacity="0.98" shape-rendering="crispEdges"/><rect x="258.23" y="259.80" width="8.83" height="8.83" fill="#20b9c4" fill-opacity="0.98" shape-rendering="crispEdges"/><rect x="291.93" y="259.80" width="8.83" height="8.83" fill="#20b9c4" fill-opacity="0.98" shape-rendering="crispEdges"/><rect x="300.35" y="259.80" width="8.83" height="8.83" fill="#20b9c4" fill-opacity="0.98" shape-rendering="crispEdges"/><rect x="199.25" y="268.23" width="8.83" height="8.83" fill="#20b9c4" fill-opacity="0.98" shape-rendering="crispEdges"/><rect x="207.68" y="268.23" width="8.83" height="8.83" fill="#20b9c4" fill-opacity="0.98" shape-rendering="crispEdges"/><rect x="216.10" y="268.23" width="8.83" height="8.83" fill="#20b9c4" fill-opacity="0.98" shape-rendering="crispEdges"/><rect x="224.53" y="268.23" width="8.83" height="8.83" fill="#20b9c4" fill-opacity="0.98" shape-rendering="crispEdges"/><rect x="232.95" y="268.23" width="8.83" height="8.83" fill="#20b9c4" fill-opacity="0.98" shape-rendering="crispEdges"/><rect x="241.38" y="268.23" width="8.83" height="8.83" fill="#0e4a52" fill-opacity="0.95" shape-rendering="crispEdges"/><rect x="249.80" y="268.23" width="8.83" height="8.83" fill="#0e4a52" fill-opacity="0.95" shape-rendering="crispEdges"/><rect x="258.23" y="268.23" width="8.83" height="8.83" fill="#20b9c4" fill-opacity="0.98" shape-rendering="crispEdges"/><rect x="266.65" y="268.23" width="8.83" height="8.83" fill="#20b9c4" fill-opacity="0.98" shape-rendering="crispEdges"/><rect x="275.07" y="268.23" width="8.83" height="8.83" fill="#20b9c4" fill-opacity="0.98" shape-rendering="crispEdges"/><rect x="283.50" y="268.23" width="8.83" height="8.83" fill="#20b9c4" fill-opacity="0.98" shape-rendering="crispEdges"/><rect x="291.93" y="268.23" width="8.83" height="8.83" fill="#20b9c4" fill-opacity="0.98" shape-rendering="crispEdges"/><rect x="199.25" y="276.65" width="8.83" height="8.83" fill="#20b9c4" fill-opacity="0.98" shape-rendering="crispEdges"/><rect x="207.68" y="276.65" width="8.83" height="8.83" fill="#20b9c4" fill-opacity="0.98" shape-rendering="crispEdges"/><rect x="216.10" y="276.65" width="8.83" height="8.83" fill="#20b9c4" fill-opacity="0.98" shape-rendering="crispEdges"/><rect x="224.53" y="276.65" width="8.83" height="8.83" fill="#20b9c4" fill-opacity="0.98" shape-rendering="crispEdges"/><rect x="232.95" y="276.65" width="8.83" height="8.83" fill="#0e4a52" fill-opacity="0.95" shape-rendering="crispEdges"/><rect x="241.38" y="276.65" width="8.83" height="8.83" fill="#0e4a52" fill-opacity="0.95" shape-rendering="crispEdges"/><rect x="249.80" y="276.65" width="8.83" height="8.83" fill="#0e4a52" fill-opacity="0.95" shape-rendering="crispEdges"/><rect x="258.23" y="276.65" width="8.83" height="8.83" fill="#0e4a52" fill-opacity="0.95" shape-rendering="crispEdges"/><rect x="266.65" y="276.65" width="8.83" height="8.83" fill="#20b9c4" fill-opacity="0.98" shape-rendering="crispEdges"/><rect x="275.07" y="276.65" width="8.83" height="8.83" fill="#20b9c4" fill-opacity="0.98" shape-rendering="crispEdges"/><rect x="283.50" y="276.65" width="8.83" height="8.83" fill="#20b9c4" fill-opacity="0.98" shape-rendering="crispEdges"/><rect x="291.93" y="276.65" width="8.83" height="8.83" fill="#20b9c4" fill-opacity="0.98" shape-rendering="crispEdges"/><rect x="190.83" y="285.07" width="8.83" height="8.83" fill="#20b9c4" fill-opacity="0.98" shape-rendering="crispEdges"/><rect x="199.25" y="285.07" width="8.83" height="8.83" fill="#20b9c4" fill-opacity="0.98" shape-rendering="crispEdges"/><rect x="207.68" y="285.07" width="8.83" height="8.83" fill="#135e69" fill-opacity="0.98" shape-rendering="crispEdges"/><rect x="216.10" y="285.07" width="8.83" height="8.83" fill="#135e69" fill-opacity="0.98" shape-rendering="crispEdges"/><rect x="224.53" y="285.07" width="8.83" height="8.83" fill="#135e69" fill-opacity="0.98" shape-rendering="crispEdges"/><rect x="232.95" y="285.07" width="8.83" height="8.83" fill="#ff7a1f" fill-opacity="0.55" shape-rendering="crispEdges"/><rect x="241.38" y="285.07" width="8.83" height="8.83" fill="#ff7a1f" fill-opacity="0.55" shape-rendering="crispEdges"/><rect x="249.80" y="285.07" width="8.83" height="8.83" fill="#ff7a1f" fill-opacity="0.55" shape-rendering="crispEdges"/><rect x="258.23" y="285.07" width="8.83" height="8.83" fill="#ff7a1f" fill-opacity="0.55" shape-rendering="crispEdges"/><rect x="266.65" y="285.07" width="8.83" height="8.83" fill="#135e69" fill-opacity="0.98" shape-rendering="crispEdges"/><rect x="275.07" y="285.07" width="8.83" height="8.83" fill="#135e69" fill-opacity="0.98" shape-rendering="crispEdges"/><rect x="283.50" y="285.07" width="8.83" height="8.83" fill="#135e69" fill-opacity="0.98" shape-rendering="crispEdges"/><rect x="291.93" y="285.07" width="8.83" height="8.83" fill="#20b9c4" fill-opacity="0.98" shape-rendering="crispEdges"/><rect x="300.35" y="285.07" width="8.83" height="8.83" fill="#20b9c4" fill-opacity="0.98" shape-rendering="crispEdges"/><rect x="190.83" y="293.50" width="8.83" height="8.83" fill="#20b9c4" fill-opacity="0.98" shape-rendering="crispEdges"/><rect x="199.25" y="293.50" width="8.83" height="8.83" fill="#20b9c4" fill-opacity="0.98" shape-rendering="crispEdges"/><rect x="207.68" y="293.50" width="8.83" height="8.83" fill="#135e69" fill-opacity="0.98" shape-rendering="crispEdges"/><rect x="216.10" y="293.50" width="8.83" height="8.83" fill="#135e69" fill-opacity="0.98" shape-rendering="crispEdges"/><rect x="224.53" y="293.50" width="8.83" height="8.83" fill="#135e69" fill-opacity="0.98" shape-rendering="crispEdges"/><rect x="232.95" y="293.50" width="8.83" height="8.83" fill="#135e69" fill-opacity="0.98" shape-rendering="crispEdges"/><rect x="241.38" y="293.50" width="8.83" height="8.83" fill="#ff7a1f" fill-opacity="0.55" shape-rendering="crispEdges"/><rect x="249.80" y="293.50" width="8.83" height="8.83" fill="#ff7a1f" fill-opacity="0.55" shape-rendering="crispEdges"/><rect x="258.23" y="293.50" width="8.83" height="8.83" fill="#135e69" fill-opacity="0.98" shape-rendering="crispEdges"/><rect x="266.65" y="293.50" width="8.83" height="8.83" fill="#135e69" fill-opacity="0.98" shape-rendering="crispEdges"/><rect x="275.07" y="293.50" width="8.83" height="8.83" fill="#135e69" fill-opacity="0.98" shape-rendering="crispEdges"/><rect x="283.50" y="293.50" width="8.83" height="8.83" fill="#135e69" fill-opacity="0.98" shape-rendering="crispEdges"/><rect x="291.93" y="293.50" width="8.83" height="8.83" fill="#20b9c4" fill-opacity="0.98" shape-rendering="crispEdges"/><rect x="300.35" y="293.50" width="8.83" height="8.83" fill="#20b9c4" fill-opacity="0.98" shape-rendering="crispEdges"/><rect x="190.83" y="301.93" width="8.83" height="8.83" fill="#20b9c4" fill-opacity="0.98" shape-rendering="crispEdges"/><rect x="199.25" y="301.93" width="8.83" height="8.83" fill="#20b9c4" fill-opacity="0.98" shape-rendering="crispEdges"/><rect x="207.68" y="301.93" width="8.83" height="8.83" fill="#135e69" fill-opacity="0.98" shape-rendering="crispEdges"/><rect x="216.10" y="301.93" width="8.83" height="8.83" fill="#135e69" fill-opacity="0.98" shape-rendering="crispEdges"/><rect x="224.53" y="301.93" width="8.83" height="8.83" fill="#135e69" fill-opacity="0.98" shape-rendering="crispEdges"/><rect x="232.95" y="301.93" width="8.83" height="8.83" fill="#135e69" fill-opacity="0.98" shape-rendering="crispEdges"/><rect x="241.38" y="301.93" width="8.83" height="8.83" fill="#135e69" fill-opacity="0.98" shape-rendering="crispEdges"/><rect x="249.80" y="301.93" width="8.83" height="8.83" fill="#135e69" fill-opacity="0.98" shape-rendering="crispEdges"/><rect x="258.23" y="301.93" width="8.83" height="8.83" fill="#135e69" fill-opacity="0.98" shape-rendering="crispEdges"/><rect x="266.65" y="301.93" width="8.83" height="8.83" fill="#135e69" fill-opacity="0.98" shape-rendering="crispEdges"/><rect x="275.07" y="301.93" width="8.83" height="8.83" fill="#135e69" fill-opacity="0.98" shape-rendering="crispEdges"/><rect x="283.50" y="301.93" width="8.83" height="8.83" fill="#135e69" fill-opacity="0.98" shape-rendering="crispEdges"/><rect x="291.93" y="301.93" width="8.83" height="8.83" fill="#20b9c4" fill-opacity="0.98" shape-rendering="crispEdges"/><rect x="300.35" y="301.93" width="8.83" height="8.83" fill="#20b9c4" fill-opacity="0.98" shape-rendering="crispEdges"/><rect x="199.25" y="310.35" width="8.83" height="8.83" fill="#20b9c4" fill-opacity="0.98" shape-rendering="crispEdges"/><rect x="207.68" y="310.35" width="8.83" height="8.83" fill="#20b9c4" fill-opacity="0.98" shape-rendering="crispEdges"/><rect x="216.10" y="310.35" width="8.83" height="8.83" fill="#135e69" fill-opacity="0.98" shape-rendering="crispEdges"/><rect x="224.53" y="310.35" width="8.83" height="8.83" fill="#135e69" fill-opacity="0.98" shape-rendering="crispEdges"/><rect x="232.95" y="310.35" width="8.83" height="8.83" fill="#135e69" fill-opacity="0.98" shape-rendering="crispEdges"/><rect x="241.38" y="310.35" width="8.83" height="8.83" fill="#135e69" fill-opacity="0.98" shape-rendering="crispEdges"/><rect x="249.80" y="310.35" width="8.83" height="8.83" fill="#135e69" fill-opacity="0.98" shape-rendering="crispEdges"/><rect x="258.23" y="310.35" width="8.83" height="8.83" fill="#135e69" fill-opacity="0.98" shape-rendering="crispEdges"/><rect x="266.65" y="310.35" width="8.83" height="8.83" fill="#135e69" fill-opacity="0.98" shape-rendering="crispEdges"/><rect x="275.07" y="310.35" width="8.83" height="8.83" fill="#135e69" fill-opacity="0.98" shape-rendering="crispEdges"/><rect x="283.50" y="310.35" width="8.83" height="8.83" fill="#20b9c4" fill-opacity="0.98" shape-rendering="crispEdges"/><rect x="291.93" y="310.35" width="8.83" height="8.83" fill="#20b9c4" fill-opacity="0.98" shape-rendering="crispEdges"/><rect x="207.68" y="318.78" width="8.83" height="8.83" fill="#0e4a52" fill-opacity="0.93" shape-rendering="crispEdges"/><rect x="216.10" y="318.78" width="8.83" height="8.83" fill="#0e4a52" fill-opacity="0.93" shape-rendering="crispEdges"/><rect x="224.53" y="318.78" width="8.83" height="8.83" fill="#20b9c4" fill-opacity="0.98" shape-rendering="crispEdges"/><rect x="232.95" y="318.78" width="8.83" height="8.83" fill="#20b9c4" fill-opacity="0.98" shape-rendering="crispEdges"/><rect x="241.38" y="318.78" width="8.83" height="8.83" fill="#20b9c4" fill-opacity="0.98" shape-rendering="crispEdges"/><rect x="249.80" y="318.78" width="8.83" height="8.83" fill="#20b9c4" fill-opacity="0.98" shape-rendering="crispEdges"/><rect x="258.23" y="318.78" width="8.83" height="8.83" fill="#20b9c4" fill-opacity="0.98" shape-rendering="crispEdges"/><rect x="266.65" y="318.78" width="8.83" height="8.83" fill="#20b9c4" fill-opacity="0.98" shape-rendering="crispEdges"/><rect x="275.07" y="318.78" width="8.83" height="8.83" fill="#0e4a52" fill-opacity="0.93" shape-rendering="crispEdges"/><rect x="283.50" y="318.78" width="8.83" height="8.83" fill="#0e4a52" fill-opacity="0.93" shape-rendering="crispEdges"/><rect x="207.68" y="234.53" width="8.83" height="8.83" fill="#0e3540" fill-opacity="0.95" shape-rendering="crispEdges"/><rect x="216.10" y="234.53" width="8.83" height="8.83" fill="#0e3540" fill-opacity="0.95" shape-rendering="crispEdges"/><rect x="224.53" y="234.53" width="8.83" height="8.83" fill="#0e3540" fill-opacity="0.95" shape-rendering="crispEdges"/><rect x="266.65" y="234.53" width="8.83" height="8.83" fill="#0e3540" fill-opacity="0.95" shape-rendering="crispEdges"/><rect x="275.07" y="234.53" width="8.83" height="8.83" fill="#0e3540" fill-opacity="0.95" shape-rendering="crispEdges"/><rect x="283.50" y="234.53" width="8.83" height="8.83" fill="#0e3540" fill-opacity="0.95" shape-rendering="crispEdges"/><rect x="199.25" y="242.95" width="8.83" height="8.83" fill="#0e3540" fill-opacity="0.95" shape-rendering="crispEdges"/><rect x="207.68" y="242.95" width="8.83" height="8.83" fill="#ff7a1f" fill-opacity="1.00" shape-rendering="crispEdges"/><rect x="216.10" y="242.95" width="8.83" height="8.83" fill="#ff7a1f" fill-opacity="1.00" shape-rendering="crispEdges"/><rect x="224.53" y="242.95" width="8.83" height="8.83" fill="#0e3540" fill-opacity="0.95" shape-rendering="crispEdges"/><rect x="266.65" y="242.95" width="8.83" height="8.83" fill="#0e3540" fill-opacity="0.95" shape-rendering="crispEdges"/><rect x="275.07" y="242.95" width="8.83" height="8.83" fill="#ff7a1f" fill-opacity="1.00" shape-rendering="crispEdges"/><rect x="283.50" y="242.95" width="8.83" height="8.83" fill="#ff7a1f" fill-opacity="1.00" shape-rendering="crispEdges"/><rect x="291.93" y="242.95" width="8.83" height="8.83" fill="#0e3540" fill-opacity="0.95" shape-rendering="crispEdges"/><rect x="199.25" y="251.38" width="8.83" height="8.83" fill="#0e3540" fill-opacity="0.95" shape-rendering="crispEdges"/><rect x="207.68" y="251.38" width="8.83" height="8.83" fill="#ff7a1f" fill-opacity="1.00" shape-rendering="crispEdges"/><rect x="216.10" y="251.38" width="8.83" height="8.83" fill="#ff7a1f" fill-opacity="1.00" shape-rendering="crispEdges"/><rect x="224.53" y="251.38" width="8.83" height="8.83" fill="#0e3540" fill-opacity="0.95" shape-rendering="crispEdges"/><rect x="266.65" y="251.38" width="8.83" height="8.83" fill="#0e3540" fill-opacity="0.95" shape-rendering="crispEdges"/><rect x="275.07" y="251.38" width="8.83" height="8.83" fill="#ff7a1f" fill-opacity="1.00" shape-rendering="crispEdges"/><rect x="283.50" y="251.38" width="8.83" height="8.83" fill="#ff7a1f" fill-opacity="1.00" shape-rendering="crispEdges"/><rect x="291.93" y="251.38" width="8.83" height="8.83" fill="#0e3540" fill-opacity="0.95" shape-rendering="crispEdges"/><rect x="207.68" y="259.80" width="8.83" height="8.83" fill="#0e3540" fill-opacity="0.95" shape-rendering="crispEdges"/><rect x="216.10" y="259.80" width="8.83" height="8.83" fill="#0e3540" fill-opacity="0.95" shape-rendering="crispEdges"/><rect x="224.53" y="259.80" width="8.83" height="8.83" fill="#0e3540" fill-opacity="0.95" shape-rendering="crispEdges"/><rect x="266.65" y="259.80" width="8.83" height="8.83" fill="#0e3540" fill-opacity="0.95" shape-rendering="crispEdges"/><rect x="275.07" y="259.80" width="8.83" height="8.83" fill="#0e3540" fill-opacity="0.95" shape-rendering="crispEdges"/><rect x="283.50" y="259.80" width="8.83" height="8.83" fill="#0e3540" fill-opacity="0.95" shape-rendering="crispEdges"/><g><rect x="199.25" y="192.40" width="8.83" height="8.83" fill="#0e4a52" fill-opacity="0.84" shape-rendering="crispEdges"/><rect x="190.83" y="200.83" width="8.83" height="8.83" fill="#0e4a52" fill-opacity="0.84" shape-rendering="crispEdges"/><rect x="199.25" y="200.83" width="8.83" height="8.83" fill="#0e4a52" fill-opacity="0.84" shape-rendering="crispEdges"/><rect x="190.83" y="209.25" width="8.83" height="8.83" fill="#0e4a52" fill-opacity="0.84" shape-rendering="crispEdges"/><animateTransform attributeName="transform" type="rotate" values="0 199.45 217.88;1.6 199.45 217.88;0 199.45 217.88" dur="2.20s" repeatCount="indefinite"/></g><g><rect x="291.93" y="192.40" width="8.83" height="8.83" fill="#0e4a52" fill-opacity="0.84" shape-rendering="crispEdges"/><rect x="291.93" y="200.83" width="8.83" height="8.83" fill="#0e4a52" fill-opacity="0.84" shape-rendering="crispEdges"/><rect x="300.35" y="200.83" width="8.83" height="8.83" fill="#0e4a52" fill-opacity="0.84" shape-rendering="crispEdges"/><rect x="300.35" y="209.25" width="8.83" height="8.83" fill="#0e4a52" fill-opacity="0.84" shape-rendering="crispEdges"/><animateTransform attributeName="transform" type="rotate" values="0 300.55 217.88;-1.6 300.55 217.88;0 300.55 217.88" dur="2.20s" repeatCount="indefinite"/></g><animateTransform xlink:href="#mnemo-owl" attributeName="transform" type="translate" additive="sum" values="0 0; 0.21 0; 0 0; -0.21 0; 0 0" dur="3.5s" repeatCount="indefinite"/><animateTransform attributeName="transform" type="translate" additive="sum" values="0 0; 0 -1.01; 0 0" dur="5.00s" repeatCount="indefinite"/></g><g><circle cx="368.0" cy="260.0" r="3" fill="#ff7a1f" opacity="0.78"/><circle cx="340.4" cy="335.8" r="3" fill="#ff7a1f" opacity="0.78"/><circle cx="270.5" cy="376.2" r="3" fill="#ff7a1f" opacity="0.78"/><circle cx="191.0" cy="362.2" r="3" fill="#ff7a1f" opacity="0.78"/><circle cx="139.1" cy="300.4" r="3" fill="#ff7a1f" opacity="0.78"/><circle cx="139.1" cy="219.6" r="3" fill="#ff7a1f" opacity="0.78"/><circle cx="191.0" cy="157.8" r="3" fill="#ff7a1f" opacity="0.78"/><circle cx="270.5" cy="143.8" r="3" fill="#ff7a1f" opacity="0.78"/><circle cx="340.4" cy="184.2" r="3" fill="#ff7a1f" opacity="0.78"/><animateTransform attributeName="transform" type="rotate" from="0 250.0 260.0" to="360 250.0 260.0" dur="9.5s" repeatCount="indefinite"/></g><line x1="321.4" y1="260.0" x2="324.4" y2="272.0" stroke="#f25c6f" stroke-opacity="0.45" stroke-width="1.6" stroke-linecap="round"/><line x1="178.6" y1="260.0" x2="175.6" y2="248.0" stroke="#f25c6f" stroke-opacity="0.45" stroke-width="1.6" stroke-linecap="round"/><line x1="230.0" y1="323.4" x2="230.0" y2="379.5" stroke="#ff7a1f" stroke-opacity="0.55" stroke-width="2" stroke-linecap="round"/><line x1="250.0" y1="323.4" x2="250.0" y2="400.7" stroke="#20b9c4" stroke-opacity="0.55" stroke-width="2" stroke-linecap="round"/><line x1="270.0" y1="323.4" x2="270.0" y2="413.7" stroke="#0e4a52" stroke-opacity="0.55" stroke-width="2" stroke-linecap="round"/></svg>