<svg xmlns="http://www.w3.org/2000/svg" viewBox="0 0 1400 920"><rect width="1400" height="920" fill="#0a0d1a"/><rect x="0" y="0" width="1400" height="48" fill="#11162a" stroke="#181f3a"/><circle cx="22" cy="24" r="6" fill="#678796"/><text x="36" y="29" font-family="-apple-system,Segoe UI,sans-serif" font-size="15" font-weight="600" fill="#d6dbf2">Mnemosyne</text><text x="120" y="29" font-family="-apple-system,sans-serif" font-size="11" fill="#6f7baa">v0.3.3</text><rect x="860" y="13" rx="11" ry="11" width="90" height="22" fill="#1a2245" stroke="#1a2245"/><text x="870" y="28" font-size="11" fill="#d6dbf2" font-family="-apple-system,sans-serif">mood: rest</text><rect x="960" y="13" rx="11" ry="11" width="100" height="22" fill="#1a2245" stroke="#1a2245"/><text x="970" y="28" font-size="11" fill="#d6dbf2" font-family="-apple-system,sans-serif">memory: 400</text><rect x="1070" y="13" rx="11" ry="11" width="90" height="22" fill="#1a2245" stroke="#1a2245"/><text x="1080" y="28" font-size="11" fill="#d6dbf2" font-family="-apple-system,sans-serif">skills: 11</text><rect x="1165" y="13" rx="11" ry="11" width="100" height="22" fill="#1a2245" stroke="#1a2245"/><text x="1175" y="28" font-size="11" fill="#d6dbf2" font-family="-apple-system,sans-serif">goals: 2 open</text><rect x="1270" y="13" rx="11" ry="11" width="120" height="22" fill="#1a2245" stroke="#f5b042"/><text x="1280" y="28" font-size="11" fill="#f5b042" font-family="-apple-system,sans-serif">identity: 35%</text><rect x="20" y="64" rx="10" ry="10" width="480" height="560" fill="#11162a" stroke="#181f3a"/><text x="38" y="88" font-size="11" font-weight="600" fill="#6f7baa" font-family="-apple-system,sans-serif" letter-spacing="1">AVATAR</text><text x="115" y="88" font-size="11" fill="#6f7baa" font-family="-apple-system,sans-serif">rest</text><g transform="translate(50, 94) scale(0.8)"><defs><radialGradient id="auraGrad" cx="50%" cy="50%" r="60%"><stop offset="0%" stop-color="#678796" stop-opacity="0.55"/><stop offset="55%" stop-color="#678796" stop-opacity="0.18"/><stop offset="100%" stop-color="#678796" stop-opacity="0"/></radialGradient><radialGradient id="coreGrad" cx="50%" cy="45%" r="60%"><stop offset="0%" stop-color="#7d99ab"/><stop offset="55%" stop-color="#678796"/><stop offset="100%" stop-color="#0a0d1a"/></radialGradient></defs><rect x="0" y="0" width="500" height="500" fill="#0a0d1a"/><path d="M0,500 L0,500.0 Q150.0,488.0 250.0,494.0 T500,500.0 L500,500 Z" fill="#7d99ab" fill-opacity="0.10"/><path d="M0,500 L0,430.0 Q150.0,422.0 250.0,426.0 T500,430.0 L500,500 Z" fill="#678796" fill-opacity="0.12"/><path d="M0,500 L0,493.2 Q150.0,487.2 250.0,490.2 T500,493.2 L500,500 Z" fill="#d9bef1" fill-opacity="0.15"/><circle cx="250.0" cy="260.0" r="192.3" fill="url(#auraGrad)" opacity="0.85"><animate attributeName="opacity" values="0.35;0.95;0.35" dur="6.00s" repeatCount="indefinite"/></circle><circle cx="250.0" cy="260.0" r="241.9" fill="none" stroke="#d9bef1" stroke-opacity="0.135" stroke-width="0.8" stroke-dasharray="4 6"/><line x1="291.9" y1="271.2" x2="312.3" y2="276.7" stroke="#7d99ab" stroke-opacity="0.55" stroke-width="1.1" stroke-linecap="round"/><line x1="280.7" y1="290.7" x2="295.6" y2="305.6" stroke="#7d99ab" stroke-opacity="0.55" stroke-width="1.1" stroke-linecap="round"/><line x1="261.2" y1="301.9" x2="266.7" y2="322.3" stroke="#7d99ab" stroke-opacity="0.55" stroke-width="1.1" stroke-linecap="round"/><line x1="238.8" y1="301.9" x2="233.3" y2="322.3" stroke="#7d99ab" stroke-opacity="0.55" stroke-width="1.1" stroke-linecap="round"/><line x1="219.3" y1="290.7" x2="204.4" y2="305.6" stroke="#7d99ab" stroke-opacity="0.55" stroke-width="1.1" stroke-linecap="round"/><line x1="208.1" y1="271.2" x2="187.7" y2="276.7" stroke="#7d99ab" stroke-opacity="0.55" stroke-width="1.1" stroke-linecap="round"/><line x1="208.1" y1="248.8" x2="187.7" y2="243.3" stroke="#7d99ab" stroke-opacity="0.55" stroke-width="1.1" stroke-linecap="round"/><line x1="219.3" y1="229.3" x2="204.4" y2="214.4" stroke="#7d99ab" stroke-opacity="0.55" stroke-width="1.1" stroke-linecap="round"/><line x1="238.8" y1="218.1" x2="233.3" y2="197.7" stroke="#7d99ab" stroke-opacity="0.55" stroke-width="1.1" stroke-linecap="round"/><line x1="261.2" y1="218.1" x2="266.7" y2="197.7" stroke="#7d99ab" stroke-opacity="0.55" stroke-width="1.1" stroke-linecap="round"/><circle cx="250.0" cy="260.0" r="80.6" fill="none" stroke="#d9bef1" stroke-opacity="0.48" stroke-width="1.2"/><circle cx="250.0" cy="260.0" r="95.5" fill="none" stroke="#d9bef1" stroke-opacity="0.42" stroke-width="1.2"/><circle cx="250.0" cy="260.0" r="110.4" fill="none" stroke="#d9bef1" stroke-opacity="0.36" stroke-width="1.2"/><circle cx="250.0" cy="260.0" r="125.3" fill="none" stroke="#d9bef1" stroke-opacity="0.30" stroke-width="1.2"/><circle cx="250.0" cy="260.0" r="140.2" fill="none" stroke="#d9bef1" stroke-opacity="0.24" stroke-width="1.2"/><circle cx="250.0" cy="260.0" r="58.6" fill="url(#coreGrad)" stroke="#7d99ab" stroke-opacity="0.55" stroke-width="1.5"/><ellipse cx="250.0" cy="256.0" rx="18" ry="4" fill="#0a0d1a" stroke="#7d99ab" stroke-width="1"/><circle cx="250.0" cy="256.0" r="5" fill="#d9bef1" opacity="0.95"/><g><circle cx="402.1" cy="260.0" r="3" fill="#d9bef1" opacity="0.78"/><circle cx="377.9" cy="342.2" r="3" fill="#d9bef1" opacity="0.78"/><circle cx="313.2" cy="398.3" r="3" fill="#d9bef1" opacity="0.78"/><circle cx="228.4" cy="410.5" r="3" fill="#d9bef1" opacity="0.78"/><circle cx="150.4" cy="374.9" r="3" fill="#d9bef1" opacity="0.78"/><circle cx="104.1" cy="302.8" r="3" fill="#d9bef1" opacity="0.78"/><circle cx="104.1" cy="217.2" r="3" fill="#d9bef1" opacity="0.78"/><circle cx="150.4" cy="145.1" r="3" fill="#d9bef1" opacity="0.78"/><circle cx="228.4" cy="109.5" r="3" fill="#d9bef1" opacity="0.78"/><circle cx="313.2" cy="121.7" r="3" fill="#d9bef1" opacity="0.78"/><circle cx="377.9" cy="177.8" r="3" fill="#d9bef1" opacity="0.78"/><animateTransform attributeName="transform" type="rotate" from="0 250.0 260.0" to="360 250.0 260.0" dur="19.9s" repeatCount="indefinite"/></g><line x1="312.6" y1="260.0" x2="315.8" y2="270.6" stroke="#f25c6f" stroke-opacity="0.45" stroke-width="1.6" stroke-linecap="round"/><line x1="187.4" y1="260.0" x2="184.2" y2="249.4" stroke="#f25c6f" stroke-opacity="0.45" stroke-width="1.6" stroke-linecap="round"/><line x1="230.0" y1="314.6" x2="230.0" y2="379.4" stroke="#d9bef1" stroke-opacity="0.55" stroke-width="2" stroke-linecap="round"/><line x1="250.0" y1="314.6" x2="250.0" y2="411.7" stroke="#678796" stroke-opacity="0.55" stroke-width="2" stroke-linecap="round"/><line x1="270.0" y1="314.6" x2="270.0" y2="334.6" stroke="#7d99ab" stroke-opacity="0.55" stroke-width="2" stroke-linecap="round"/></g><text x="38" y="474" font-size="12" fill="#6f7baa" font-family="-apple-system,sans-serif">wisdom</text><text x="238" y="474" font-size="12" fill="#d6dbf2" text-anchor="end" font-family="-apple-system,sans-serif">12%</text><text x="258" y="474" font-size="12" fill="#6f7baa" font-family="-apple-system,sans-serif">restlessness</text><text x="458" y="474" font-size="12" fill="#d6dbf2" text-anchor="end" font-family="-apple-system,sans-serif">0%</text><text x="38" y="502" font-size="12" fill="#6f7baa" font-family="-apple-system,sans-serif">novelty</text><text x="238" y="502" font-size="12" fill="#d6dbf2" text-anchor="end" font-family="-apple-system,sans-serif">0%</text><text x="258" y="502" font-size="12" fill="#6f7baa" font-family="-apple-system,sans-serif">self-assessment</text><text x="458" y="502" font-size="12" fill="#d6dbf2" text-anchor="end" font-family="-apple-system,sans-serif">80%</text><text x="38" y="530" font-size="12" fill="#6f7baa" font-family="-apple-system,sans-serif">health</text><text x="238" y="530" font-size="12" fill="#d6dbf2" text-anchor="end" font-family="-apple-system,sans-serif">22%</text><text x="258" y="530" font-size="12" fill="#6f7baa" font-family="-apple-system,sans-serif">activity</text><text x="458" y="530" font-size="12" fill="#d6dbf2" text-anchor="end" font-family="-apple-system,sans-serif">1%</text><rect x="520" y="64" rx="10" ry="10" width="580" height="380" fill="#11162a" stroke="#181f3a"/><text x="538" y="88" font-size="11" font-weight="600" fill="#6f7baa" letter-spacing="1" font-family="-apple-system,sans-serif">CHAT</text><rect x="720" y="114" rx="14" ry="14" width="360" height="46" fill="#181f3a" stroke="#3a4475" stroke-width="0.8"/><text x="732" y="136" font-size="13" fill="#d6dbf2" font-family="-apple-system,sans-serif">Hello. I'm Mnemosyne. The avatar reflects my state in real time.</text><rect x="720" y="172" rx="14" ry="14" width="360" height="46" fill="#1e3243" stroke="#50aabd" stroke-width="0.8"/><text x="732" y="194" font-size="13" fill="#d6dbf2" font-family="-apple-system,sans-serif">Plan a database migration for production.</text><rect x="538" y="230" rx="14" ry="14" width="540" height="46" fill="#181f3a" stroke="#3a4475" stroke-width="0.8"/><text x="550" y="252" font-size="13" fill="#d6dbf2" font-family="-apple-system,sans-serif">Plan: (1) take an off-host backup, (2) apply the migration inside a transac</text><text x="550" y="268" font-size="13" fill="#d6dbf2" font-family="-apple-system,sans-serif">tion, (3) validate row counts.</text><rect x="720" y="296" rx="14" ry="14" width="360" height="46" fill="#1e3243" stroke="#50aabd" stroke-width="0.8"/><text x="732" y="318" font-size="13" fill="#d6dbf2" font-family="-apple-system,sans-serif">What memories do you have about dark mode?</text><rect x="538" y="382" rx="8" ry="8" width="544" height="44" fill="#0a0d1a" stroke="#181f3a"/><text x="550" y="408" font-size="13" fill="#6f7baa" font-family="-apple-system,sans-serif">Ask anything (Shift+Enter for newline)…</text><rect x="1120" y="64" rx="10" ry="10" width="260" height="180" fill="#11162a" stroke="#181f3a"/><text x="1138" y="88" font-size="11" font-weight="600" fill="#6f7baa" letter-spacing="1" font-family="-apple-system,sans-serif">EVENTS</text><text x="1210" y="88" font-size="11" fill="#4ce0a8" font-family="-apple-system,sans-serif">live</text><text x="1138" y="114" font-size="11" fill="#6f7baa" font-family="ui-monospace,monospace">18:38:11</text><text x="1202" y="114" font-size="11" fill="#d9bef1" font-family="ui-monospace,monospace">memory_write</text><text x="1330" y="114" font-size="11" fill="#d6dbf2" font-family="ui-monospace,monospace">preference</text><text x="1138" y="138" font-size="11" fill="#6f7baa" font-family="ui-monospace,monospace">18:38:10</text><text x="1202" y="138" font-size="11" fill="#d9bef1" font-family="ui-monospace,monospace">turn_end</text><text x="1330" y="138" font-size="11" fill="#d6dbf2" font-family="ui-monospace,monospace">ok</text><text x="1138" y="162" font-size="11" fill="#6f7baa" font-family="ui-monospace,monospace">18:38:09</text><text x="1202" y="162" font-size="11" fill="#d9bef1" font-family="ui-monospace,monospace">tool_call</text><text x="1330" y="162" font-size="11" fill="#d6dbf2" font-family="ui-monospace,monospace">fs_read</text><text x="1138" y="186" font-size="11" fill="#6f7baa" font-family="ui-monospace,monospace">18:38:09</text><text x="1202" y="186" font-size="11" fill="#d9bef1" font-family="ui-monospace,monospace">persona_call</text><text x="1330" y="186" font-size="11" fill="#d6dbf2" font-family="ui-monospace,monospace">doer</text><text x="1138" y="210" font-size="11" fill="#6f7baa" font-family="ui-monospace,monospace">18:38:08</text><text x="1202" y="210" font-size="11" fill="#d9bef1" font-family="ui-monospace,monospace">persona_call</text><text x="1330" y="210" font-size="11" fill="#d6dbf2" font-family="ui-monospace,monospace">critic</text><rect x="1120" y="254" rx="10" ry="10" width="260" height="190" fill="#11162a" stroke="#181f3a"/><text x="1138" y="278" font-size="11" font-weight="600" fill="#6f7baa" letter-spacing="1" font-family="-apple-system,sans-serif">GOALS</text><rect x="1138" y="298" width="32" height="20" rx="5" fill="#1a2245"/><text x="1154" y="312" font-size="11" fill="#f25c6f" text-anchor="middle" font-family="-apple-system,sans-serif">P1</text><text x="1182" y="312" font-size="13" fill="#d6dbf2" font-family="-apple-system,sans-serif">ship v0.3.3</text><rect x="1138" y="334" width="32" height="20" rx="5" fill="#1a2245"/><text x="1154" y="348" font-size="11" fill="#f5b042" text-anchor="middle" font-family="-apple-system,sans-serif">P2</text><text x="1182" y="348" font-size="13" fill="#d6dbf2" font-family="-apple-system,sans-serif">add memory browser</text><rect x="1138" y="370" width="32" height="20" rx="5" fill="#1a2245"/><text x="1154" y="384" font-size="11" fill="#4ce0a8" text-anchor="middle" font-family="-apple-system,sans-serif">P3</text><text x="1182" y="384" font-size="13" fill="#d6dbf2" font-family="-apple-system,sans-serif">audit identity slips</text><rect x="20" y="638" rx="10" ry="10" width="480" height="262" fill="#11162a" stroke="#181f3a"/><text x="38" y="662" font-size="11" font-weight="600" fill="#6f7baa" letter-spacing="1" font-family="-apple-system,sans-serif">MEMORY TIERS</text><text x="38" y="706" font-size="12" fill="#d6dbf2" font-family="-apple-system,sans-serif">L1</text><rect x="70" y="698" width="370" height="10" rx="5" fill="#181f3a"/><rect x="70" y="698" width="30.0" height="10" rx="5" fill="#d9bef1" opacity="0.85"/><text x="470" y="707" font-size="11" fill="#6f7baa" text-anchor="end" font-family="-apple-system,sans-serif">30</text><text x="38" y="740" font-size="12" fill="#d6dbf2" font-family="-apple-system,sans-serif">L2</text><rect x="70" y="732" width="370" height="10" rx="5" fill="#181f3a"/><rect x="70" y="732" width="370.0" height="10" rx="5" fill="#678796" opacity="0.85"/><text x="470" y="741" font-size="11" fill="#6f7baa" text-anchor="end" font-family="-apple-system,sans-serif">370</text><text x="38" y="774" font-size="12" fill="#d6dbf2" font-family="-apple-system,sans-serif">L3</text><rect x="70" y="766" width="370" height="10" rx="5" fill="#181f3a"/><rect x="70" y="766" width="0.0" height="10" rx="5" fill="#7d99ab" opacity="0.85"/><text x="470" y="775" font-size="11" fill="#6f7baa" text-anchor="end" font-family="-apple-system,sans-serif">0</text><rect x="520" y="458" rx="10" ry="10" width="860" height="442" fill="#11162a" stroke="#181f3a"/><text x="538" y="482" font-size="11" font-weight="600" fill="#6f7baa" letter-spacing="1" font-family="-apple-system,sans-serif">MEMORY BROWSER</text><text x="690" y="482" font-size="11" fill="#6f7baa" font-family="-apple-system,sans-serif">FTS5 search across all memory tiers</text><rect x="538" y="498" rx="6" ry="6" width="600" height="30" fill="#0a0d1a" stroke="#181f3a"/><text x="548" y="518" font-size="12" fill="#d6dbf2" font-family="-apple-system,sans-serif">dark mode</text><rect x="1150" y="498" rx="6" ry="6" width="100" height="30" fill="#0a0d1a" stroke="#181f3a"/><text x="1160" y="518" font-size="12" fill="#d6dbf2" font-family="-apple-system,sans-serif">L1+L2</text><rect x="1260" y="498" rx="6" ry="6" width="80" height="30" fill="#678796"/><text x="1300" y="518" font-size="12" fill="#0a0d1a" text-anchor="middle" font-weight="600" font-family="-apple-system,sans-serif">Find</text><rect x="538" y="536" width="26" height="18" rx="4" fill="none" stroke="#d9bef1" stroke-width="1"/><text x="551" y="549" font-size="10" fill="#d9bef1" text-anchor="middle" font-family="-apple-system,sans-serif">L1</text><text x="572" y="549" font-size="10" fill="#6f7baa" font-family="-apple-system,sans-serif">preference</text><text x="640" y="549" font-size="12" fill="#d6dbf2" font-family="-apple-system,sans-serif">user prefers dark mode in editor</text><text x="1360" y="549" font-size="10" fill="#6f7baa" text-anchor="end" font-family="-apple-system,sans-serif">2026-04-15</text><rect x="538" y="570" width="26" height="18" rx="4" fill="none" stroke="#d9bef1" stroke-width="1"/><text x="551" y="583" font-size="10" fill="#d9bef1" text-anchor="middle" font-family="-apple-system,sans-serif">L1</text><text x="572" y="583" font-size="10" fill="#6f7baa" font-family="-apple-system,sans-serif">preference</text><text x="640" y="583" font-size="12" fill="#d6dbf2" font-family="-apple-system,sans-serif">project uses Rust + tokio for the API</text><text x="1360" y="583" font-size="10" fill="#6f7baa" text-anchor="end" font-family="-apple-system,sans-serif">2026-04-15</text><rect x="538" y="604" width="26" height="18" rx="4" fill="none" stroke="#678796" stroke-width="1"/><text x="551" y="617" font-size="10" fill="#678796" text-anchor="middle" font-family="-apple-system,sans-serif">L2</text><text x="572" y="617" font-size="10" fill="#6f7baa" font-family="-apple-system,sans-serif">fact</text><text x="640" y="617" font-size="12" fill="#d6dbf2" font-family="-apple-system,sans-serif">meeting notes: migration plan review</text><text x="1360" y="617" font-size="10" fill="#6f7baa" text-anchor="end" font-family="-apple-system,sans-serif">2026-04-15</text><rect x="538" y="638" width="26" height="18" rx="4" fill="none" stroke="#7d99ab" stroke-width="1"/><text x="551" y="651" font-size="10" fill="#7d99ab" text-anchor="middle" font-family="-apple-system,sans-serif">L3</text><text x="572" y="651" font-size="10" fill="#6f7baa" font-family="-apple-system,sans-serif">fact</text><text x="640" y="651" font-size="12" fill="#d6dbf2" font-family="-apple-system,sans-serif">old fact: Python 3.7 EOL</text><text x="1360" y="651" font-size="10" fill="#6f7baa" text-anchor="end" font-family="-apple-system,sans-serif">2026-03-11</text></svg>